HIERARCHY
ROOT Hips
{
	OFFSET -3.958830 18.904000 13.208200
	CHANNELS 6 Xposition Yposition Zposition Zrotation Yrotation Xrotation 
	JOINT LHipJoint
	{
		OFFSET 0.000000 0.000000 0.000000
		CHANNELS 3 Zrotation Yrotation Xrotation
		JOINT LeftUpLeg
		{
			OFFSET 1.800000 -1.400000 0.085000
			CHANNELS 3 Zrotation Yrotation Xrotation
			JOINT LeftLeg
			{
				OFFSET 2.215000 -6.000000 0.000000
				CHANNELS 3 Zrotation Yrotation Xrotation
				JOINT LeftFoot
				{
					OFFSET 2.500000 -6.900000 0.000000
					CHANNELS 3 Zrotation Yrotation Xrotation
					JOINT LeftToeBase
					{
						OFFSET 0.200000 -0.500000 1.950000
						CHANNELS 3 Zrotation Yrotation Xrotation
						End Site
						{
							OFFSET 0.000000 0.000000 0.000000
						}
					}
				}
			}
		}
	}
	JOINT RHipJoint
	{
		OFFSET 0.000000 0.000000 0.000000
		CHANNELS 3 Zrotation Yrotation Xrotation
		JOINT RightUpLeg
		{
			OFFSET -1.800000 -1.400000 0.085000
			CHANNELS 3 Zrotation Yrotation Xrotation
			JOINT RightLeg
			{
				OFFSET -2.215000 -6.000000 0.000000
				CHANNELS 3 Zrotation Yrotation Xrotation
				JOINT RightFoot
				{
					OFFSET -2.500000 -6.900000 0.000000
					CHANNELS 3 Zrotation Yrotation Xrotation
					JOINT RightToeBase
					{
						OFFSET -0.200000 -0.500000 1.950000
						CHANNELS 3 Zrotation Yrotation Xrotation
						End Site
						{
							OFFSET 0.000000 0.000000 0.000000
						}
					}
				}
			}
		}
	}
	JOINT LowerBack
	{
		OFFSET 0.000000 0.000000 0.000000
		CHANNELS 3 Zrotation Yrotation Xrotation
		JOINT Spine
		{
			OFFSET -0.087000 1.940000 -0.288900
			CHANNELS 3 Zrotation Yrotation Xrotation
			JOINT Spine1
			{
				OFFSET 0.000000 1.950000 0.060000
				CHANNELS 3 Zrotation Yrotation Xrotation
				JOINT Neck
				{
					OFFSET 0.000000 0.000000 0.000000
					CHANNELS 3 Zrotation Yrotation Xrotation
					JOINT Neck1
					{
						OFFSET 0.000000 1.600000 0.340000
						CHANNELS 3 Zrotation Yrotation Xrotation
						JOINT Head
						{
							OFFSET 0.000000 1.667000 -0.240000
							CHANNELS 3 Zrotation Yrotation Xrotation
							End Site
							{
								OFFSET 0.000000 0.000000 0.000000
							}
						}
					}
				}
				JOINT LeftShoulder
				{
					OFFSET 0.000000 0.000000 0.000000
					CHANNELS 3 Zrotation Yrotation Xrotation
					JOINT LeftArm
					{
						OFFSET 2.700000 1.550000 -0.730000
						CHANNELS 3 Zrotation Yrotation Xrotation
						JOINT LeftForeArm
						{
							OFFSET 5.450000 0.000000 0.000000
							CHANNELS 3 Zrotation Yrotation Xrotation
							JOINT LeftHand
							{
								OFFSET 3.450000 0.000000 0.000000
								CHANNELS 3 Zrotation Yrotation Xrotation
								JOINT LeftHandIndex1
								{
									OFFSET 0.750000 0.000000 0.000000
									CHANNELS 3 Zrotation Yrotation Xrotation
									End Site
									{
										OFFSET 0.000000 0.000000 0.000000
									}
								}
							}
						}
					}
				}
				JOINT RightShoulder
				{
					OFFSET 0.000000 0.000000 0.000000
					CHANNELS 3 Zrotation Yrotation Xrotation
					JOINT RightArm
					{
						OFFSET -2.700000 1.550000 -0.730000
						CHANNELS 3 Zrotation Yrotation Xrotation
						JOINT RightForeArm
						{
							OFFSET -5.450000 0.000000 0.000000
							CHANNELS 3 Zrotation Yrotation Xrotation
							JOINT RightHand
							{
								OFFSET -3.450000 0.000000 0.000000
								CHANNELS 3 Zrotation Yrotation Xrotation
								JOINT RightHandIndex1
								{
									OFFSET -0.750000 0.000000 0.000000
									CHANNELS 3 Zrotation Yrotation Xrotation
									End Site
									{
										OFFSET 0.000000 0.000000 0.000000
									}
								}
							}
						}
					}
				}
			}
		}
	}
}
MOTION
Frames: 8
Frame Time: 0.016667
-0.677580 16.235670 5.099880 3.852945 34.532197 -13.873148 -16.273625 15.320686 4.467173 -14.913869 -1.187975 -0.594476 -5.755407 7.453015 22.976696 0.183843 5.601623 2.567408 0.143060 -0.070310 0.485440 17.274669 -8.382213 3.046857 13.536158 1.365445 -10.562155 -3.394144 -4.834967 34.873142 -0.705162 -4.597450 2.378881 -0.133540 -0.123640 0.267620 -0.256135 -9.861749 -8.437856 16.718268 -6.157665 53.559054 -1.680303 15.462016 -18.694043 -1.251135 12.080241 -22.734358 22.180977 -18.905386 28.682463 -5.625170 -8.292550 -12.191800 5.557376 -18.273893 7.687885 11.288214 -6.288431 -0.572683 5.722528 6.404360 -1.151350 -4.479129 1.808822 0.611960 -0.160550 0.298120 -0.160700 -7.855584 18.140511 13.526253 78.886927 -7.727210 -13.848360 -19.353590 2.058628 1.273726 2.820326 -1.500411 -0.113280 -0.055320 0.015400 -0.159480 
-0.714850 16.228790 4.967650 6.359474 38.639192 -25.887996 -15.991247 14.622163 4.728923 -14.649220 1.443936 13.855823 -6.734392 9.091751 22.531006 0.586078 6.738320 2.247332 0.440200 0.491670 0.514760 17.567132 -8.839151 2.959869 10.047537 -1.404020 4.649070 -3.684377 -5.681747 30.679859 -0.979457 -5.327236 2.213340 0.258790 -0.035590 0.178100 -0.711345 -8.162803 -8.102121 21.587726 -6.666405 62.934504 -6.614060 15.089662 -1.744444 -8.014855 12.544826 -28.459460 29.363272 -18.420595 17.662864 0.303830 -7.819710 -13.850810 20.082103 -22.593015 13.915022 15.063472 3.859058 -1.135342 2.189916 10.408856 -1.785074 -5.112106 0.396785 0.445380 -0.091900 0.341720 0.043030 -13.287915 25.451567 14.744352 84.020572 11.299997 -10.402601 -24.791192 3.127070 -1.445381 2.450406 -1.931332 -0.079260 0.134770 -0.211040 -0.009750 
-0.647950 16.228900 4.951330 7.866934 48.433984 -25.705983 -15.831013 15.052096 4.934880 -14.450039 3.049629 18.109047 -7.613541 9.431915 19.884992 0.708443 6.845578 2.164294 0.572100 0.727630 0.497800 17.728810 -8.500976 2.764697 7.601923 -0.673548 6.249192 -0.022264 -6.663473 30.165480 -1.103581 -5.269107 2.259663 0.344510 -0.154020 0.128510 0.402401 -10.626629 -8.149826 22.050623 -2.949487 58.675159 -2.124180 15.412257 2.917072 -8.921794 13.401747 -30.681838 28.570205 -20.776356 21.875970 1.618980 -12.059090 -21.851560 19.840188 -25.783039 17.532707 23.294855 9.929618 -1.692604 0.132405 10.543008 -1.932230 -4.969502 -0.502086 0.537210 -0.253680 0.490210 0.096490 -9.514929 26.511224 13.754637 70.192936 12.681670 -2.814657 -16.342066 -4.107609 1.369738 2.634859 -1.698628 0.003290 0.239830 -0.254320 0.051400 
-0.615690 16.283930 4.933660 10.045268 60.567474 -23.123765 -15.390085 15.544370 4.909883 -12.050288 3.990558 20.116524 -7.295324 9.190349 17.774288 0.694050 6.881743 2.032777 0.825640 1.010430 0.595040 18.126744 -8.568558 2.411671 4.065336 0.391570 5.192284 -0.011715 -6.410043 32.249582 -1.169712 -5.386641 2.070411 0.507790 -0.269860 0.318250 1.799475 -12.955057 -8.175796 19.375366 -1.616998 55.603503 0.053178 14.263045 0.190528 -6.720117 12.905671 -28.992901 26.061144 -20.767839 22.098893 -0.227310 -13.679880 -25.080090 16.075350 -24.727575 11.667731 33.810328 8.560574 -3.554822 2.132967 11.203251 -2.080200 -5.021204 0.092240 0.498630 -0.286430 0.596140 0.123640 -9.120429 27.128032 14.934963 63.980034 12.882928 -0.466790 -15.615986 -2.309417 0.712147 2.651678 -1.804251 0.193420 0.105420 -0.289720 0.089060 
-0.496860 16.328870 4.864980 2.921089 70.885044 -25.514119 -14.778520 15.642174 4.672975 -8.608571 3.689066 18.669473 -9.476014 9.388562 16.512905 0.630544 6.850309 1.977857 1.008080 1.289200 0.681190 18.691790 -8.582596 2.655065 4.460436 2.613797 1.955772 5.865897 -7.312975 30.636012 -1.179865 -5.318964 2.018246 0.680720 -0.312620 0.462780 2.866608 -14.516713 -8.477447 21.991066 -5.352961 48.418738 -1.126830 13.556909 -2.003007 -3.374453 11.355993 -27.444540 20.893358 -17.884665 22.757185 -6.420710 -12.860690 -25.948670 12.068312 -23.351858 7.421842 42.349836 9.545996 -3.281790 2.820366 9.824270 -2.226365 -4.860848 0.548819 0.398110 -0.215260 0.688100 0.175960 -10.518777 30.208435 16.609792 56.037684 13.894859 2.769652 -13.487725 -5.169907 0.855370 2.736467 -1.837221 0.322310 0.057960 -0.352440 0.139860 
-0.299470 16.476990 4.841220 -31.285750 86.015791 -51.089698 -14.431724 14.262255 4.207160 -7.402432 2.877652 14.435741 -6.094478 7.746190 16.554376 0.238168 6.055206 2.253769 1.143060 1.565490 0.845240 18.886901 -10.392448 2.766308 4.417100 4.018409 -6.196610 6.098431 -6.097554 27.831147 -0.921370 -4.799683 2.201403 0.999810 -0.146400 0.470020 3.763114 -17.987897 -9.140251 22.916587 -7.594945 37.318163 -2.756611 18.327697 -13.334462 -4.781633 12.279476 -25.419663 18.856504 -13.903522 19.565936 -14.241000 -8.924150 -16.914020 18.806588 -16.646515 -4.690471 34.566799 -7.198114 -2.361275 9.113068 9.170248 -1.463310 -5.378461 1.160093 0.106570 0.107610 0.593390 0.233760 -15.099348 19.158839 14.734361 58.888026 10.727632 2.653209 -18.006593 0.752705 -0.898565 2.543053 -2.114299 0.262480 0.187960 -0.451010 0.143370 
-0.145120 16.578090 4.801570 -169.043722 85.873974 177.436045 -15.667424 17.001453 4.213186 -7.077716 2.594141 9.520388 -4.588042 6.868538 15.090645 0.163912 5.893938 2.373197 1.357400 1.956420 0.874960 17.774336 -8.051719 2.645348 4.623802 5.322279 -10.256367 4.805821 -4.229881 26.312053 -0.637591 -4.056698 2.374680 1.299020 0.071320 0.660840 3.115377 -15.735796 -9.135262 24.243270 -7.672398 28.637022 -5.212271 20.151316 -21.023740 -7.543905 13.072777 -22.002962 19.324959 -8.092086 15.412075 -14.795050 -3.762690 -10.482630 29.790802 -12.945504 -29.125345 20.977111 -18.165068 2.003269 12.151072 2.323031 -1.310369 -5.388363 2.921668 -0.327680 0.468310 0.483490 0.392190 -22.041253 12.193189 15.154202 59.191804 15.672439 7.497824 -18.588596 -0.097767 -1.638808 2.410204 -2.616264 0.408180 0.108390 -0.562600 0.282710 
-0.007690 16.688180 4.771580 179.256396 68.386769 168.669729 -14.982467 16.788460 4.557543 -7.533759 2.426638 8.593599 -0.207565 4.858216 13.780559 -0.382381 5.813796 2.485120 1.497850 2.368570 0.690590 18.061199 -9.506712 2.748926 0.658312 4.547507 -11.517634 3.931052 -3.533275 25.222427 -0.416042 -4.546750 2.156034 1.875650 0.800540 0.934840 3.522647 -14.085970 -9.162271 20.333536 -11.865357 19.991903 -12.756090 3.362900 -20.400412 1.246913 12.433859 -25.571303 16.247601 -0.801415 8.554868 -14.294020 -0.815820 -3.935410 23.672014 48.827380 2.382303 68.723321 -34.794351 -156.279221 6.590730 -18.920978 -0.098638 -5.875095 5.976865 -1.013100 1.245880 0.052530 0.585090 -46.868791 1.850211 14.981152 78.270313 34.278852 19.435216 -8.931909 5.688002 -3.773313 1.141394 -3.738490 0.356320 0.319020 -0.426620 0.489030 
